<svg xmlns="http://www.w3.org/2000/svg" viewBox="0 0 500 262" width="500" height="262" font-family="'Trebuchet MS','Segoe UI',Verdana,sans-serif"><defs></defs><ellipse cx="250" cy="248" rx="150" ry="6" fill="#000" opacity=".08"><animate attributeName="rx" values="150;125;150" dur="5.800000000000001s" repeatCount="indefinite"/><animate attributeName="opacity" values=".09;.04;.09" dur="5.800000000000001s" repeatCount="indefinite"/></ellipse><g><rect x="10" y="22" width="480" height="206" rx="24" fill="#ffffff" stroke="#111111" stroke-width="2.5"/><text x="36" y="58" font-size="13" font-weight="700" fill="#111111">In progress</text><text x="36" y="96" font-size="30" font-weight="800" fill="#111111">Library System</text><text x="36" y="126" font-size="14.5" fill="#5b6070">Offline library manager for schools.</text><text x="36" y="148" font-size="14.5" fill="#5b6070">18 modules, no server needed.</text><rect x="36" y="176" width="66" height="24" rx="12" fill="#111111" opacity=".1"/><text x="69" y="192" text-anchor="middle" font-size="12" font-weight="700" fill="#111111">JavaFX</text><rect x="110" y="176" width="66" height="24" rx="12" fill="#111111" opacity=".1"/><text x="144" y="192" text-anchor="middle" font-size="12" font-weight="700" fill="#111111">SQLite</text><rect x="185" y="176" width="59" height="24" rx="12" fill="#111111" opacity=".1"/><text x="214" y="192" text-anchor="middle" font-size="12" font-weight="700" fill="#111111">Maven</text><g><rect x="360" y="38" width="96" height="22" rx="4" fill="#2563EB"/><rect x="370" y="44" width="66" height="3" rx="1.5" fill="#fff" opacity=".6"/><animateTransform attributeName="transform" type="translate" values="0 0;14 0;0 0" dur="3.0s" repeatCount="indefinite"/></g><g><rect x="360" y="74" width="80" height="22" rx="4" fill="#EF4444"/><rect x="370" y="80" width="50" height="3" rx="1.5" fill="#fff" opacity=".6"/><animateTransform attributeName="transform" type="translate" values="0 0;-10 0;0 0" dur="3.5s" repeatCount="indefinite"/></g><g><rect x="360" y="110" width="104" height="22" rx="4" fill="#111111"/><rect x="370" y="116" width="74" height="3" rx="1.5" fill="#fff" opacity=".6"/><animateTransform attributeName="transform" type="translate" values="0 0;14 0;0 0" dur="4.0s" repeatCount="indefinite"/></g><g><rect x="360" y="142" width="88" height="22" rx="4" fill="#2563EB"/><rect x="370" y="148" width="58" height="3" rx="1.5" fill="#fff" opacity=".6"/><animateTransform attributeName="transform" type="translate" values="0 0;-10 0;0 0" dur="4.5s" repeatCount="indefinite"/></g><animateTransform attributeName="transform" type="translate" values="0 0;0 -9;0 0" dur="5.800000000000001s" begin="-2.2s" repeatCount="indefinite" calcMode="spline" keyTimes="0;.5;1" keySplines=".45 0 .55 1;.45 0 .55 1"/></g></svg>